<svg xmlns="http://www.w3.org/2000/svg" viewBox="0 0 282.57 202.02"><defs><style>.cls-1{fill:none;stroke:#fff;stroke-miterlimit:10;stroke-width:7px;}.cls-2{fill:#ff67a9;}</style></defs><g id="Слой_2" data-name="Слой 2"><g id="Слой_1-2" data-name="Слой 1"><path class="cls-1" d="M132.94,34.09,40.61,110.2a2.52,2.52,0,0,1-.08.49,2.27,2.27,0,0,0-.08.47v77.08a10.42,10.42,0,0,0,10.28,10.28h61.66V136.86H153.5v61.66h61.66a10.43,10.43,0,0,0,10.28-10.28V111.16a2.17,2.17,0,0,0-.17-1Z"/><path class="cls-1" d="M261.24,111.09l-10,11.88a5.51,5.51,0,0,1-3.37,1.76h-.49a4.93,4.93,0,0,1-3.37-1.12L132.94,31,21.83,123.61A6,6,0,0,1,18,124.74,5.5,5.5,0,0,1,14.6,123l-10-11.88a5.18,5.18,0,0,1-1.12-3.78,4.66,4.66,0,0,1,1.76-3.45L120.74,7.67a19.95,19.95,0,0,1,24.41,0l39.18,32.76V9.12A4.95,4.95,0,0,1,189.46,4h30.83a5,5,0,0,1,5.14,5.14V74.64l35.17,29.22a4.68,4.68,0,0,1,1.76,3.45A5.14,5.14,0,0,1,261.24,111.09Z"/><circle class="cls-2" cx="248.02" cy="163.48" r="34.55"/></g></g></svg>